<?xml version="1.0" encoding="UTF-8"?>
<svg width="1200pt" height="1200pt" version="1.1" viewBox="0 0 1200 1200" xmlns="http://www.w3.org/2000/svg">
 <path d="m60 0h1080c33.137 0 60 33.137 60 60v1080c0 33.137-26.863 60-60 60h-1080c-33.137 0-60-33.137-60-60v-1080c0-33.137 26.863-60 60-60z" fill="#333"/>
 <path d="m810.1 306.78h-420.19c-51.395 0-92.191 41.562-92.191 92.191v258.45c0 50.625 41.562 92.191 92.191 92.191l43.836 0.03125-12.84 107.3c-4.5469 27.957 26.449 46.109 49.121 29.461l139.81-137.53h200.27c51.395 0 92.191-41.562 92.191-92.191v-257.71c0-51.363-41.562-92.191-92.191-92.191zm-371.07 266.77c-24.945 0-45.344-20.398-45.344-45.344 0-24.945 20.398-45.344 45.344-45.344 24.945 0 46.109 20.398 46.109 45.344 0 24.945-21.168 45.344-46.109 45.344zm160.98 0c-24.945 0-45.344-20.398-45.344-45.344 0-24.945 20.398-45.344 45.344-45.344 24.945 0 46.109 20.398 46.109 45.344-0.76562 24.945-21.168 45.344-46.109 45.344zm160.98 0c-24.945 0-45.344-20.398-45.344-45.344 0-24.945 20.398-45.344 45.344-45.344 24.945 0 46.109 20.398 46.109 45.344-0.76562 24.945-21.168 45.344-46.109 45.344z" fill="#b767d6"/>
</svg>
