<svg width="87" height="22" viewBox="0 0 87 22" fill="none" xmlns="http://www.w3.org/2000/svg">
<path d="M18.624 4.744L11.072 5.544V21H9.312V5.736L0.8 6.568V2.152L18.624 0.327999V4.744ZM16.1015 7.88H17.8615V15.688C17.8615 16.424 18.1815 16.808 18.8215 16.808C20.7095 16.808 22.6295 16.296 24.8375 14.664V7.88H26.5975V21H24.8375V18.856C22.9495 20.232 20.6455 21.224 18.1815 21.224C16.9975 21.224 16.1015 20.264 16.1015 19.176V7.88ZM41.6878 14.184V18.024C39.2558 20.328 36.2158 21.32 33.6878 21.32C31.6398 21.32 29.2718 20.552 29.2718 15.88C29.2718 10.696 34.1358 7.368 38.4558 7.368C39.4798 7.368 40.4718 7.368 41.6558 7.784V12.072H41.3038C40.3758 11.72 39.3838 11.56 38.1998 11.56C33.5598 11.56 30.4878 14.696 30.4878 15.848C30.4878 16.968 33.1118 17.224 33.7838 17.224C36.1518 17.224 38.8718 16.168 41.3358 14.184H41.6878ZM57.883 21.512H57.531L46.395 16.072V21H44.635V0.839998H46.395V12.584L56.347 7.464L57.403 8.904L49.051 13.192L57.883 17.384V21.512ZM74.0133 11.784V13.512C71.9013 13.992 64.2853 15.4 61.6613 15.72C61.8853 16.424 63.2613 17.192 65.2773 17.192C67.5493 17.192 70.1413 16.584 72.1893 15.56H72.5413V19.56C70.1093 20.776 67.2933 21.384 65.1813 21.384C62.2373 21.384 59.8053 20.04 59.8053 16.072C59.8053 10.664 63.7733 7.432 68.9893 7.432C72.2213 7.432 73.5653 8.968 73.6613 11.848L74.0133 11.784ZM61.8213 13.992L71.6453 12.36C71.6453 11.56 70.7813 11.272 68.6693 11.272C65.5973 11.272 62.9093 12.392 61.8213 13.992ZM86.7873 12.168H86.4353C85.8593 12.008 85.2193 11.944 84.1633 11.944C82.5633 11.944 80.4833 12.584 78.0513 14.248V21H76.2913V7.88H78.0513V10.184C80.1313 8.616 82.6913 7.4 84.9953 7.4C85.7953 7.4 86.3713 7.496 86.7873 7.688V12.168Z" fill="white"/>
</svg>
