<svg width="110" height="110" viewBox="0 0 1200 1200" fill="none" xmlns="http://www.w3.org/2000/svg">
 <path d="m164.5 303.77h84.77v84.77h-84.77z" fill="white"/>
 <path d="m1042.5 388.54h-752.74c-3.8828 0-7.0312 3.1484-7.0312 7.0312 0 3.8828 3.1484 7.0312 7.0312 7.0312h752.74c3.8828 0 7.0312-3.1484 7.0312-7.0312 0-3.8828-3.1484-7.0312-7.0312-7.0312z" fill="white"/>
 <path d="m289.79 303.05h752.74c3.8828 0 7.0312-3.1484 7.0312-7.0312s-3.1484-7.0312-7.0312-7.0312h-752.74c-3.8828 0-7.0312 3.1484-7.0312 7.0312s3.1523 7.0312 7.0312 7.0312z" fill="white"/>
 <path d="m818.41 812.18h84.777v84.77h-84.777z" fill="white"/>
 <path d="m950.74 812.18h84.758v84.77h-84.758z" fill="white"/>
 <path d="m686.1 812.18h84.758v84.77h-84.758z" fill="white"/>
 <path d="m164.5 471.23h870.99v258.26h-870.99z" fill="white"/>
 <path d="m650.51 798.12h-493.04c-3.8828 0-7.0312 3.1484-7.0312 7.0312 0 3.8828 3.1484 7.0312 7.0312 7.0312h493.04c3.8828 0 7.0312-3.1484 7.0312-7.0312 0-3.8789-3.1484-7.0312-7.0312-7.0312z" fill="white"/>
 <path d="m650.51 896.95h-493.04c-3.8828 0-7.0312 3.1484-7.0312 7.0312s3.1484 7.0312 7.0312 7.0312h493.04c3.8828 0 7.0312-3.1484 7.0312-7.0312s-3.1484-7.0312-7.0312-7.0312z" fill="white"/>
</svg>
