<svg width="44" height="44" viewBox="0 0 44 44" fill="none" xmlns="http://www.w3.org/2000/svg">
<rect width="44" height="44" fill="#4E2E91"/>
<path d="M15.2 22.6L10.112 23.176V33H8.768V23.336L4.224 23.848V20.712L8.768 20.2V15.624H10.112V20.04L15.2 19.464V22.6ZM28.4125 33.512H28.0605L18.0125 27.72V33H16.6365V12.84H18.0125V24.584L27.1645 19.464L27.9965 20.552L19.5805 25.288L28.4125 30.408V33.512ZM40.5505 22.952H40.1985C39.6545 22.792 38.9505 22.696 37.8625 22.696C36.1985 22.696 34.4065 23.304 32.2625 25.064V33H30.8865V19.88H32.2625V21.992C34.0865 20.424 36.2305 19.4 38.3105 19.4C39.3985 19.4 40.0705 19.528 40.5505 19.72V22.952Z" fill="white"/>
</svg>
