<svg width="110" height="54" viewBox="0 0 110 54" fill="none" xmlns="http://www.w3.org/2000/svg">
<path d="M103.125 5.80005H6.875C6.11561 5.80005 5.5 6.39327 5.5 7.12505V46.875C5.5 47.6068 6.11561 48.2001 6.875 48.2001H103.125C103.884 48.2001 104.5 47.6068 104.5 46.875V7.12505C104.5 6.39327 103.884 5.80005 103.125 5.80005Z" stroke="white" stroke-width="5"/>
<path d="M30.25 5.80005V48.2001" stroke="white" stroke-width="3"/>
<path d="M55 5.80005V48.2001" stroke="white" stroke-width="3"/>
<path d="M79.75 5.80005V48.2001" stroke="white" stroke-width="3"/>
<path d="M25.3 11.1001H10.45C9.99437 11.1001 9.625 11.456 9.625 11.8951V18.2551C9.625 18.6942 9.99437 19.0501 10.45 19.0501H25.3C25.7556 19.0501 26.125 18.6942 26.125 18.2551V11.8951C26.125 11.456 25.7556 11.1001 25.3 11.1001Z" fill="white"/>
<path d="M25.3 23.0249H10.45C9.99437 23.0249 9.625 23.3808 9.625 23.8199V30.1799C9.625 30.619 9.99437 30.9749 10.45 30.9749H25.3C25.7556 30.9749 26.125 30.619 26.125 30.1799V23.8199C26.125 23.3808 25.7556 23.0249 25.3 23.0249Z" fill="white"/>
<path d="M25.3 34.95H10.45C9.99437 34.95 9.625 35.3059 9.625 35.745V42.105C9.625 42.544 9.99437 42.9 10.45 42.9H25.3C25.7556 42.9 26.125 42.544 26.125 42.105V35.745C26.125 35.3059 25.7556 34.95 25.3 34.95Z" fill="white"/>
<path d="M50.05 11.1001H35.2C34.7444 11.1001 34.375 11.456 34.375 11.8951V18.2551C34.375 18.6942 34.7444 19.0501 35.2 19.0501H50.05C50.5056 19.0501 50.875 18.6942 50.875 18.2551V11.8951C50.875 11.456 50.5056 11.1001 50.05 11.1001Z" fill="white"/>
<path d="M50.05 23.0249H35.2C34.7444 23.0249 34.375 23.3808 34.375 23.8199V30.1799C34.375 30.619 34.7444 30.9749 35.2 30.9749H50.05C50.5056 30.9749 50.875 30.619 50.875 30.1799V23.8199C50.875 23.3808 50.5056 23.0249 50.05 23.0249Z" fill="white"/>
<path d="M74.8 11.1001H59.95C59.4944 11.1001 59.125 11.456 59.125 11.8951V18.2551C59.125 18.6942 59.4944 19.0501 59.95 19.0501H74.8C75.2556 19.0501 75.625 18.6942 75.625 18.2551V11.8951C75.625 11.456 75.2556 11.1001 74.8 11.1001Z" fill="white"/>
<path d="M74.8 23.0249H59.95C59.4944 23.0249 59.125 23.3808 59.125 23.8199V30.1799C59.125 30.619 59.4944 30.9749 59.95 30.9749H74.8C75.2556 30.9749 75.625 30.619 75.625 30.1799V23.8199C75.625 23.3808 75.2556 23.0249 74.8 23.0249Z" fill="white"/>
<path d="M74.8 34.95H59.95C59.4944 34.95 59.125 35.3059 59.125 35.745V42.105C59.125 42.544 59.4944 42.9 59.95 42.9H74.8C75.2556 42.9 75.625 42.544 75.625 42.105V35.745C75.625 35.3059 75.2556 34.95 74.8 34.95Z" fill="white"/>
<path d="M99.55 11.1001H84.7C84.2444 11.1001 83.875 11.456 83.875 11.8951V18.2551C83.875 18.6942 84.2444 19.0501 84.7 19.0501H99.55C100.006 19.0501 100.375 18.6942 100.375 18.2551V11.8951C100.375 11.456 100.006 11.1001 99.55 11.1001Z" fill="white"/>
</svg>
