<svg width="400" height="300" viewBox="0 0 400 300" fill="none" xmlns="http://www.w3.org/2000/svg">
  <rect width="400" height="300" fill="#F8FAFC"/>

  <!-- Kanban Board Layout -->
  <rect x="20" y="40" width="100" height="240" rx="8" fill="#EF4444" fill-opacity="0.1" stroke="#EF4444" stroke-width="2"/>
  <rect x="140" y="40" width="100" height="240" rx="8" fill="#F59E0B" fill-opacity="0.1" stroke="#F59E0B" stroke-width="2"/>
  <rect x="260" y="40" width="100" height="240" rx="8" fill="#10B981" fill-opacity="0.1" stroke="#10B981" stroke-width="2"/>

  <!-- Column Headers -->
  <text x="70" y="25" text-anchor="middle" font-family="Arial" font-size="14" font-weight="bold" fill="#1F2937">TO DO</text>
  <text x="190" y="25" text-anchor="middle" font-family="Arial" font-size="14" font-weight="bold" fill="#1F2937">IN PROGRESS</text>
  <text x="310" y="25" text-anchor="middle" font-family="Arial" font-size="14" font-weight="bold" fill="#1F2937">DONE</text>

  <!-- Task Cards -->
  <rect x="30" y="50" width="80" height="40" rx="4" fill="white" stroke="#E5E7EB"/>
  <text x="35" y="65" font-family="Arial" font-size="10" fill="#374151">Setup project</text>
  <text x="35" y="75" font-family="Arial" font-size="8" fill="#6B7280">2 days left</text>

  <rect x="30" y="100" width="80" height="40" rx="4" fill="white" stroke="#E5E7EB"/>
  <text x="35" y="115" font-family="Arial" font-size="10" fill="#374151">Design mockups</text>
  <text x="35" y="125" font-family="Arial" font-size="8" fill="#6B7280">5 days left</text>

  <rect x="150" y="50" width="80" height="40" rx="4" fill="white" stroke="#E5E7EB"/>
  <text x="155" y="65" font-family="Arial" font-size="10" fill="#374151">Build API</text>
  <text x="155" y="75" font-family="Arial" font-size="8" fill="#6B7280">In progress</text>

  <rect x="270" y="50" width="80" height="40" rx="4" fill="white" stroke="#E5E7EB"/>
  <text x="275" y="65" font-family="Arial" font-size="10" fill="#374151">User research</text>
  <text x="275" y="75" font-family="Arial" font-size="8" fill="#6B7280">Complete</text>

  <!-- Title -->
  <text x="200" y="15" text-anchor="middle" font-family="Arial" font-size="16" font-weight="bold" fill="#1F2937">Visual Kanban Interface</text>
</svg>